<?xml version="1.0" encoding="UTF-8"?>
<svg width="800px" height="640px" viewBox="0 0 800 640" version="1.1" xmlns="http://www.w3.org/2000/svg" xmlns:xlink="http://www.w3.org/1999/xlink">
    <!-- Generator: Sketch 54.1 (76490) - https://sketchapp.com -->
    <title>Artboard</title>
    <desc>Created with Sketch.</desc>
    <g id="Artboard" stroke="none" stroke-width="1" fill="none" fill-rule="evenodd">
        <g id="grow-portfolio" transform="translate(-80.000000, -160.000000)">
            <g id="bounding-box">
                <polygon id="shape" points="0 0 960 0 960 960 0 960"></polygon>
            </g>
            <rect id="Rectangle" stroke="#3C1A5B" stroke-width="40" fill="#FFF748" x="100" y="180" width="760" height="600" rx="60"></rect>
            <rect id="Rectangle" stroke="#3C1A5B" stroke-width="40" fill="#FFF748" fill-rule="nonzero" x="700" y="260" width="80" height="452" rx="32"></rect>
            <rect id="Rectangle-Copy" stroke="#3C1A5B" stroke-width="40" fill="#FFF748" fill-rule="nonzero" x="540" y="440" width="80" height="260" rx="32"></rect>
            <rect id="Rectangle-Copy-2" stroke="#3C1A5B" stroke-width="40" fill="#FFF748" fill-rule="nonzero" x="380" y="540" width="80" height="160" rx="32"></rect>
            <path d="M248.822445,480 L248.822445,449.779952 C281.096284,444.498776 298.406797,422.493888 298.406797,397.555012 C298.406797,371.442543 283.73687,355.599022 250.876235,343.276284 C225.93736,333.300734 215.375012,326.552567 215.375012,314.523227 C215.375012,304.547677 222.709976,293.98533 243.247873,293.98533 C263.198973,293.98533 276.108508,300.733496 283.150073,303.96088 L291.071834,276.968215 C281.683081,272.273839 269.066944,267.872861 250.582836,267.286064 L250.582836,240 L226.524156,240 L226.524156,268.753056 C196.890905,274.03423 179.286993,293.398533 179.286993,318.630807 C179.286993,345.91687 199.238093,360 230.044939,371.149144 C251.75643,379.070905 262.025379,387.579462 262.025379,400.782396 C262.025379,414.865524 249.409242,423.96088 230.925134,423.96088 C213.027824,423.96088 196.597506,417.799512 185.154963,411.051344 L177.233203,438.630808 C187.79555,445.672372 206.279658,450.953544 224.763765,451.540344 L224.763765,480 L248.822445,480 Z" id="$" fill="#3C1A5B" fill-rule="nonzero"></path>
        </g>
    </g>
</svg>